<?xml version="1.0" encoding="UTF-8" standalone="no"?>
<!-- Created with Inkscape (http://www.inkscape.org/) -->

<svg
   xmlns:dc="http://purl.org/dc/elements/1.1/"
   xmlns:cc="http://creativecommons.org/ns#"
   xmlns:rdf="http://www.w3.org/1999/02/22-rdf-syntax-ns#"
   xmlns:svg="http://www.w3.org/2000/svg"
   xmlns="http://www.w3.org/2000/svg"
   xmlns:xlink="http://www.w3.org/1999/xlink"
   xmlns:sodipodi="http://sodipodi.sourceforge.net/DTD/sodipodi-0.dtd"
   xmlns:inkscape="http://www.inkscape.org/namespaces/inkscape"
   width="210mm"
   height="297mm"
   viewBox="0 0 744.09448819 1052.3622047"
   id="svg2"
   version="1.1"
   inkscape:version="0.91 r13725"
   sodipodi:docname="icon.svg">
  <defs
     id="defs4">
    <linearGradient
       inkscape:collect="always"
       id="linearGradient4440">
      <stop
         style="stop-color:#4d4d4d;stop-opacity:1"
         offset="0"
         id="stop4442" />
      <stop
         style="stop-color:#666666;stop-opacity:0;"
         offset="1"
         id="stop4444" />
    </linearGradient>
    <linearGradient
       inkscape:collect="always"
       xlink:href="#linearGradient4440"
       id="linearGradient4446"
       x1="-868.7312"
       y1="280.60568"
       x2="919.23883"
       y2="1159.4384"
       gradientUnits="userSpaceOnUse" />
  </defs>
  <sodipodi:namedview
     id="base"
     pagecolor="#ffffff"
     bordercolor="#666666"
     borderopacity="1.0"
     inkscape:pageopacity="0.0"
     inkscape:pageshadow="2"
     inkscape:zoom="0.98994949"
     inkscape:cx="-486.55496"
     inkscape:cy="361.93124"
     inkscape:document-units="px"
     inkscape:current-layer="layer1"
     showgrid="false"
     inkscape:window-width="1366"
     inkscape:window-height="706"
     inkscape:window-x="-8"
     inkscape:window-y="-8"
     inkscape:window-maximized="1" />
  <metadata
     id="metadata7">
    <rdf:RDF>
      <cc:Work
         rdf:about="">
        <dc:format>image/svg+xml</dc:format>
        <dc:type
           rdf:resource="http://purl.org/dc/dcmitype/StillImage" />
        <dc:title></dc:title>
      </cc:Work>
    </rdf:RDF>
  </metadata>
  <g
     inkscape:label="Layer 1"
     inkscape:groupmode="layer"
     id="layer1">
    <rect
       style="fill:#666666;fill-opacity:1;stroke:none;stroke-width:15.69999981;stroke-miterlimit:4;stroke-dasharray:none;stroke-opacity:1"
       id="rect4152-7-5-3"
       width="619.93896"
       height="619.93896"
       x="-817.06604"
       y="308.02713"
       ry="44.446712"
       inkscape:export-filename="C:\Users\Maciej\Desktop\icon.png"
       inkscape:export-xdpi="90"
       inkscape:export-ydpi="90" />
    <path
       style="fill:url(#linearGradient4446);fill-opacity:1;stroke:none;stroke-width:15.69999981;stroke-miterlimit:4;stroke-dasharray:none;stroke-opacity:1"
       d="m -504.54141,374.09379 c 53.8328,60.85961 85.0603,152.624 85.4375,232.84535 0.4203,28.15109 -5.6663,59.31641 -10.5423,87.5588 -5.2158,30.21098 -14.8258,48.7825 -31.7481,74.60633 -7.8185,10.89472 -11.1455,21.47875 -21.3763,15.60248 -0.4838,-38.23486 2.8123,-69.02724 -0.1118,-107.15058 -17.7776,-15.89611 -45.1593,-15.08708 -49.9021,6.99729 -2.1771,10.1374 -1.4744,40.57031 -0.9301,45.83017 -0.6812,26.00572 7.1589,37.47374 5.4889,63.20345 -21.4704,-3.45616 -16.789,-19.08359 -27.192,-37.56371 -10.9815,-18.03606 -31.9558,-42.19437 -49.4923,-55.80722 -20.0309,-20.05742 0.6869,40.47633 3.3607,50.09711 6.2863,16.65258 23.0068,30.18244 -1.4869,38.55719 -23.1121,17.15208 -44.7481,38.29204 -67.8824,55.41418 l 124.79475,83.4117 c 118.0951,-0.2517 196.79416,-0.5023 314.88922,-0.7519 19.28728,-6.9719 36.44715,-25.7069 32.88981,-47.19259 0.24351,-107.60769 0.4858,-215.21538 0.72738,-322.82307 -98.74434,-56.87449 -293.26415,-175.97406 -306.92396,-182.83498 z m -2.6499,38.13604 c -18.723,25.92426 -40.9021,64.22441 -49.3033,95.0804 18.8902,5.22538 43.4438,6.12588 63.6499,4.60341 6.9249,-0.52177 13.9564,0.54097 20.6934,0.007 1.5706,-1.25517 11.5081,-1.79351 12.1725,-3.46802 0.5484,-1.38231 -0.1656,-9.07638 -1.9032,-13.13436 -1.568,-3.66207 -3.0354,-8.64312 -5.0012,-13.69771 -1.6602,-4.26857 -4.3053,-9.62224 -6.1784,-13.60144 -3.6158,-7.68144 -7.706,-13.28752 -9.9029,-19.42461 -6.226,-10.82587 -15.9737,-26.94051 -24.2268,-36.36501 z m 105.3736,289.71484 c 25.8189,-2.71899 46.7323,5.8984 48.1507,35.18938 1.60412,37.47694 5.7311,60.10695 4.21862,97.5782 -30.03622,-21.31307 -44.95222,-30.99243 -74.67722,-52.76981 14.3804,-27.1578 17.3307,-49.71148 22.3079,-79.99777 z"
       id="path4367-6"
       inkscape:connector-curvature="0"
       sodipodi:nodetypes="ccscccsccccccccccccccscsssscccccccc"
       inkscape:export-filename="C:\Users\Maciej\Desktop\icon.png"
       inkscape:export-xdpi="90"
       inkscape:export-ydpi="90" />
    <g
       transform="matrix(8.9904417,0,0,8.9904417,-739.79491,375.74785)"
       id="g3-6-6-4-2-7"
       inkscape:export-filename="C:\Users\Maciej\Desktop\icon.png"
       inkscape:export-xdpi="90"
       inkscape:export-ydpi="90">
      <g
         id="g5-0-0-2-6-0">
        <g
           id="g7-2-1-4-7-2">
          <path
             style="fill:#ffffff"
             inkscape:connector-curvature="0"
             d="m 26.185,0 c 0,0 -10.073,7.816 -10.073,27.016 0,12.314 3.724,20.015 8.573,21.33 l 0,-12.395 c 0,-0.828 0.671,-1.5 1.5,-1.5 0.829,0 1.5,0.672 1.5,1.5 l 0,12.395 C 32.534,47.031 36.257,39.33 36.257,27.016 36.257,7.594 26.185,0 26.185,0 Z m -0.119,14.818 c -1.729,0 -3.418,-0.155 -4.914,-0.438 1.465,-4.721 3.531,-7.901 5.051,-9.761 1.516,1.837 3.571,4.989 5.026,9.715 -1.552,0.314 -3.333,0.484 -5.163,0.484 z"
             id="path9-3-6-9-2-7" />
          <path
             style="fill:#ffffff"
             inkscape:connector-curvature="0"
             d="m 13.408,35.504 c -3.007,0 -5.444,2.081 -5.444,4.648 l 0,12.218 9.862,-7.296 c -1.463,-2.496 -2.556,-5.737 -3.201,-9.57 l -1.217,0 z"
             id="path11-5-2-0-3-3" />
          <path
             style="fill:#ffffff"
             inkscape:connector-curvature="0"
             d="m 38.96,35.504 -1.216,0 c -0.646,3.833 -1.738,7.074 -3.201,9.57 l 9.862,7.296 0,-12.218 c 0,-2.567 -2.437,-4.648 -5.445,-4.648 z"
             id="path13-5-7-4-4-8" />
        </g>
      </g>
    </g>
  </g>
</svg>
